<?xml version="1.0" standalone="no"?>
<!DOCTYPE svg PUBLIC "-//W3C//DTD SVG 20010904//EN"
 "http://www.w3.org/TR/2001/REC-SVG-20010904/DTD/svg10.dtd">
<svg version="1.0" xmlns="http://www.w3.org/2000/svg"
 width="512.000000pt" height="512.000000pt" viewBox="0 0 512.000000 512.000000"
 preserveAspectRatio="xMidYMid meet">

<g transform="translate(0.000000,512.000000) scale(0.100000,-0.100000)"
fill="#000000" stroke="none">
<path d="M4592 4874 c-12 -8 -46 -50 -74 -92 -110 -164 -221 -243 -423 -302
-152 -44 -217 -80 -300 -164 -87 -88 -129 -159 -155 -260 -37 -147 -22 -292
47 -436 45 -94 166 -219 260 -268 264 -138 603 -67 781 162 120 155 192 450
192 779 -1 290 -65 478 -194 565 -53 35 -99 41 -134 16z"/>
<path d="M1955 4609 c-663 -69 -1264 -490 -1559 -1092 -198 -404 -249 -891
-142 -1332 121 -493 436 -929 865 -1195 165 -102 267 -140 381 -140 135 0 285
65 385 166 110 111 155 238 155 442 1 445 238 764 625 841 l80 15 97 196 c92
185 211 401 308 555 48 78 104 142 132 151 12 3 52 73 109 186 l90 181 -26 92
c-35 124 -42 244 -21 363 l16 93 -31 27 c-396 338 -940 506 -1464 451z m751
-790 c56 -17 77 -31 125 -78 49 -49 61 -69 80 -130 36 -120 13 -224 -71 -315
-23 -25 -68 -58 -99 -73 -47 -24 -68 -28 -136 -28 -158 1 -271 91 -311 247
-19 72 -13 130 20 203 42 93 115 154 215 181 66 18 100 17 177 -7z m-1116
-178 c78 -30 134 -81 172 -158 28 -58 33 -77 33 -143 -1 -92 -32 -168 -95
-228 -68 -67 -120 -87 -225 -87 -106 0 -155 20 -225 88 -65 63 -94 135 -94
227 1 142 81 257 212 305 56 20 163 18 222 -4z m-176 -1101 c124 -47 206 -164
206 -296 0 -104 -22 -158 -94 -230 -78 -77 -134 -99 -245 -92 -165 10 -285
128 -298 292 -19 233 212 407 431 326z"/>
<path d="M3521 3225 c-64 -133 -78 -155 -101 -160 -39 -9 -68 -44 -153 -186
-432 -720 -697 -1458 -768 -2136 -13 -128 -7 -348 11 -408 18 -59 69 -105 116
-105 216 0 682 532 1047 1195 159 289 347 744 463 1120 37 119 40 143 23 189
-9 28 -4 47 55 186 l65 155 -87 8 c-213 19 -398 104 -537 246 -27 28 -52 51
-55 50 -3 0 -38 -70 -79 -154z"/>
</g>
</svg>
