<?xml version="1.0" standalone="no"?>
<!DOCTYPE svg PUBLIC "-//W3C//DTD SVG 20010904//EN"
 "http://www.w3.org/TR/2001/REC-SVG-20010904/DTD/svg10.dtd">
<svg version="1.0" xmlns="http://www.w3.org/2000/svg"
 width="512.000000pt" height="512.000000pt" viewBox="0 0 512.000000 512.000000"
 preserveAspectRatio="xMidYMid meet">

<g transform="translate(0.000000,512.000000) scale(0.100000,-0.100000)"
fill="#000000" stroke="none">
<path d="M2203 5105 c-3 -9 0 -59 7 -112 28 -208 -4 -437 -86 -623 -97 -220
-201 -360 -564 -755 -231 -251 -299 -330 -395 -459 -189 -254 -305 -486 -374
-747 -56 -209 -65 -290 -65 -559 0 -228 2 -254 27 -371 162 -760 754 -1331
1507 -1454 1016 -165 1975 554 2126 1595 20 143 15 454 -11 600 -58 324 -168
605 -334 852 -101 150 -136 158 -132 28 7 -246 -142 -439 -371 -481 -86 -16
-179 -1 -264 41 -76 37 -170 134 -210 217 -28 55 -29 64 -28 188 1 103 7 163
33 290 39 199 46 298 32 445 -24 229 -72 397 -172 590 -136 264 -359 509 -625
689 -66 44 -91 50 -101 26z m142 -2521 c8 -9 14 -24 11 -33 -12 -42 -16 -307
-7 -406 21 -217 71 -336 191 -455 124 -124 260 -176 440 -167 141 6 250 50
373 149 36 29 56 17 79 -44 52 -141 65 -361 29 -513 -82 -342 -348 -612 -686
-697 -123 -30 -323 -30 -438 0 -335 91 -588 347 -673 681 -20 77 -24 119 -24
236 0 349 102 618 354 931 81 101 307 334 323 334 6 0 19 -7 28 -16z"/>
</g>
</svg>
