<?xml version="1.0" standalone="no"?>
<!DOCTYPE svg PUBLIC "-//W3C//DTD SVG 20010904//EN"
 "http://www.w3.org/TR/2001/REC-SVG-20010904/DTD/svg10.dtd">
<svg version="1.0" xmlns="http://www.w3.org/2000/svg"
 width="512.000000pt" height="512.000000pt" viewBox="0 0 512.000000 512.000000"
 preserveAspectRatio="xMidYMid meet">

<g transform="translate(0.000000,512.000000) scale(0.100000,-0.100000)"
fill="#000000" stroke="none">
<path d="M2655 4946 c-37 -17 -70 -52 -84 -89 -8 -20 -11 -455 -11 -1408 l0
-1380 -72 59 c-143 116 -261 180 -419 226 -598 173 -1230 -186 -1389 -789
-100 -382 8 -789 285 -1070 338 -343 860 -431 1293 -218 319 157 549 470 607
828 13 75 15 282 15 1272 l0 1182 123 -59 c343 -163 707 -260 1090 -291 251
-20 306 -10 361 65 21 27 21 38 21 566 0 528 0 539 -21 566 -39 52 -69 68
-142 71 -577 27 -968 139 -1424 410 -122 72 -176 86 -233 59z"/>
</g>
</svg>
